<?xml version="1.0" encoding="UTF-8" standalone="no"?>
<!-- Created with Inkscape (http://www.inkscape.org/) -->

<svg
   width="41.879002mm"
   height="41.879002mm"
   viewBox="0 0 41.879002 41.879002"
   version="1.1"
   id="svg1"
   inkscape:export-filename="6stars.svg"
   inkscape:export-xdpi="96"
   inkscape:export-ydpi="96"
   sodipodi:docname="6stars.svg"
   inkscape:version="1.3.2 (091e20e, 2023-11-25, custom)"
   xmlns:inkscape="http://www.inkscape.org/namespaces/inkscape"
   xmlns:sodipodi="http://sodipodi.sourceforge.net/DTD/sodipodi-0.dtd"
   xmlns="http://www.w3.org/2000/svg"
   xmlns:svg="http://www.w3.org/2000/svg">
  <sodipodi:namedview
     id="namedview1"
     pagecolor="#ffffff"
     bordercolor="#000000"
     borderopacity="0.25"
     inkscape:showpageshadow="2"
     inkscape:pageopacity="0.0"
     inkscape:pagecheckerboard="0"
     inkscape:deskcolor="#d1d1d1"
     inkscape:document-units="mm"
     inkscape:zoom="3.7401401"
     inkscape:cx="79.007736"
     inkscape:cy="79.14142"
     inkscape:window-width="1440"
     inkscape:window-height="830"
     inkscape:window-x="-6"
     inkscape:window-y="-6"
     inkscape:window-maximized="1"
     inkscape:current-layer="svg1" />
  <defs
     id="defs1">
    <marker
       markerWidth="200"
       markerHeight="190.95464"
       refX="14.137464"
       refY="13.498071"
       orient="0"
       id="marker3-27"
       viewBox="0 0 28.274927 26.996142"
       preserveAspectRatio="xMidYMid">
      <path
         style="fill:#eb1400;fill-opacity:1;stroke:#e61302;stroke-width:0;stroke-dasharray:none;stroke-opacity:1;paint-order:fill markers stroke"
         id="path8-9-7-64"
         d="m 22.70557,26.96724 c -0.643236,0.457628 -7.89854,-4.670618 -8.687373,-4.679471 -0.789362,-0.0089 -8.1453394,4.974908 -8.7793316,4.50459 C 4.6048933,26.321997 7.2401171,17.837101 7.0036671,17.083946 6.7672171,16.330769 -0.24480166,10.874583 0.00660084,10.126283 0.25799888,9.3779784 9.141971,9.2622677 9.7852067,8.8046369 10.428431,8.3470261 13.450743,-0.00785093 14.240105,5.5373239e-6 15.029467,0.00781071 17.884828,8.4212689 18.518818,8.8915955 c 0.633969,0.4703644 9.513898,0.7629203 9.750348,1.5160775 0.236453,0.753159 -6.88282,6.068674 -7.134212,6.816945 -0.251395,0.748316 2.214367,9.284034 1.571144,9.741641 z" />
    </marker>
  </defs>
  <g
     id="g1"
     inkscape:label="g1">
    <circle
       style="display:inline;fill:#ff7901;fill-opacity:1;stroke:#fdfae0;stroke-width:1.69045;stroke-dasharray:none;stroke-opacity:1;paint-order:fill markers stroke"
       id="path4-6-7-6"
       cx="178.89555"
       cy="114.33722"
       r="20.09408"
       inkscape:label="base"
       transform="translate(-157.95625,-93.397914)" />
    <g
       inkscape:groupmode="layer"
       id="layer3"
       inkscape:label="6stars"
       inkscape:transform-center-y="0.84652998"
       inkscape:export-filename="6stars.svg"
       inkscape:export-xdpi="96"
       inkscape:export-ydpi="96"
       sodipodi:insensitive="true"
       style="display:inline"
       transform="translate(4.0417046e-5,-0.69955626)">
      <path
         sodipodi:type="star"
         style="display:inline;fill:none;stroke:none;stroke-width:0.04;stroke-opacity:1;marker-start:url(#marker3-27);marker-mid:url(#marker3-27);paint-order:fill markers stroke"
         id="path2"
         inkscape:flatsided="true"
         sodipodi:sides="5"
         sodipodi:cx="20.090412"
         sodipodi:cy="21.080786"
         sodipodi:r1="9.7663422"
         sodipodi:r2="7.9011364"
         sodipodi:arg1="1.5707963"
         sodipodi:arg2="2.1991149"
         inkscape:rounded="0"
         inkscape:randomized="0"
         d="m 20.090412,30.847128 -9.288343,-6.748376 3.547831,-10.919103 11.481024,0 3.547832,10.919102 z"
         inkscape:transform-center-y="0.93260245"
         transform="translate(0.84889064)" />
      <path
         style="display:inline;fill:#eb1400;fill-opacity:1;stroke:#e61302;stroke-width:0;stroke-dasharray:none;stroke-opacity:1;paint-order:fill markers stroke"
         id="path8-9-3-3"
         d="m 23.180446,24.692396 c -0.16915,0.12256 -2.10059,-1.21738 -2.30947,-1.2176 -0.20888,-2e-4 -2.14347,1.33518 -2.3123,1.21221 -0.16881,-0.123 0.50865,-2.37398 0.44434,-2.57269 -0.0643,-0.19871 -1.93218,-1.62597 -1.86741,-1.82454 0.0648,-0.19857 2.41496,-0.24984 2.58408,-0.3724 0.16914,-0.12256 0.94931,-2.34007 1.15819,-2.33982 0.20886,2.5e-4 0.98388,2.21956 1.15271,2.34253 0.16881,0.12299 2.5189,0.17972 2.5832,0.37844 0.0643,0.19871 -1.80689,1.62161 -1.87166,1.82017 -0.0648,0.19858 0.60745,2.45115 0.43833,2.57371 z" />
    </g>
  </g>
</svg>
